{"title":"Due Date [2010] BRRip x264 - ZooGLE","uid":6147611,"size":429591490,"categoryP":"video","categoryS":"movies","magnet":"?xt=urn:btih:d9492993efe3ed3972dbe2d073bc227964f478b2&amp;dn=Due+Date+%5B2010%5D+BRRip+x264+-+ZooGLE&amp;tr=udp%3A%2F%2Ftracker.openbittorrent.com%3A80&amp;tr=udp%3A%2F%2Fopen.demonii.com%3A1337&amp;tr=udp%3A%2F%2Ftracker.coppersurfer.tk%3A6969&amp;tr=udp%3A%2F%2Fexodus.desync.com%3A6969","seeders":0,"leechers":1,"uploader":"iZooGLEi","files":4,"time":1296751718,"description":"Complete name                    : Due Date [2010] BRRip x264 - ZooGLE\nFormat                           : MPEG-4\nFormat profile                   : Base Media\nCodec ID                         : isom\nFile size                        : 401 MiB\nDuration                         : 1h 35mn\nOverall bit rate                 : 588 Kbps\n\nVideo\nID                               : 1\nFormat                           : AVC\nFormat/Info                      : Advanced Video Codec\nFormat profile                   : &lt;a class=&quot;__cf_email__&quot; href=&quot;/cdn-cgi/l/email-protection&quot; data-cfemail=&quot;feb6979996beb2cad0cf&quot;&gt;[email&amp;#160;protected]&lt;/a&gt;&lt;script cf-hash='f9e31' type=&quot;text/javascript&quot;&gt;\n/* &lt;![CDATA[ */!function(){try{var t=&quot;currentScript&quot;in document?document.currentScript:function(){for(var t=document.getElementsByTagName(&quot;script&quot;),e=t.length;e--;)if(t[e].getAttribute(&quot;cf-hash&quot;))return t[e]}();if(t&amp;&amp;t.previousSibling){var e,r,n,i,c=t.previousSibling,a=c.getAttribute(&quot;data-cfemail&quot;);if(a){for(e=&quot;&quot;,r=parseInt(a.substr(0,2),16),n=2;a.length-n;n+=2)i=parseInt(a.substr(n,2),16)^r,e+=String.fromCharCode(i);e=document.createTextNode(e),c.parentNode.replaceChild(e,c)}}}catch(u){}}();/* ]]&gt; */&lt;/script&gt;\nFormat settings, CABAC           : Yes\nFormat settings, ReFrames        : 4 frames\nCodec ID                         : avc1\nCodec ID/Info                    : Advanced Video Coding\nDuration                         : 1h 35mn\nBit rate mode                    : Variable\nBit rate                         : 488 Kbps\nMaximum bit rate                 : 2 932 Kbps\nWidth                            : 640 pixels\nHeight                           : 264 pixels\nDisplay aspect ratio             : 2.40:1\nFrame rate mode                  : Constant\nFrame rate                       : 23.976 fps\nColor space                      : YUV\nChroma subsampling               : 4:2:0\nBit depth                        : 8 bits\nScan type                        : Progressive\nBits/(Pixel*Frame)               : 0.120\nStream size                      : 333 MiB (83%)\n\nAudio\nID                               : 2\nFormat                           : AAC\nFormat/Info                      : Advanced Audio Codec\nFormat profile                   : LC\nCodec ID                         : 40\nDuration                         : 1h 35mn\nBit rate mode                    : Variable\nBit rate                         : 96.0 Kbps\nMaximum bit rate                 : 166 Kbps\nChannel(s)                       : 2 channels\nChannel positions                : Front: L R\nSampling rate                    : 48.0 KHz\nCompression mode                 : Lossy\nStream size                      : 65.5 MiB (16%)\n\n\nIMDB              6.9/10 (18,787 votes)\n\nComedy \n\nHigh-strung father-to-be Peter Highman is forced to hitch a ride with aspiring actor Ethan Tremblay on a road trip in order to make it to his child's birth on time.\n\nDirector:Todd Phillips\n\nWriters:Alan R. Cohen (screenplay), Alan Freedland (screenplay),\n \nStars:Robert Downey Jr., Zach Galifianakis and Michelle Monaghan \n\nSubtitles English\n\n\nSCREENSHOTS\n &lt;a href=&quot;\nhttp://img4.imageshack.us/img4/7166/due1.png&quot; rel=&quot;nofollow&quot; target=&quot;_NEW&quot;&gt;\nhttp://img4.imageshack.us/img4/7166/due1.png&lt;/a&gt;\n &lt;a href=&quot;\nhttp://img84.imageshack.us/img84/130/due2n.png&quot; rel=&quot;nofollow&quot; target=&quot;_NEW&quot;&gt;\nhttp://img84.imageshack.us/img84/130/due2n.png&lt;/a&gt;\n &lt;a href=&quot;\nhttp://img59.imageshack.us/img59/6115/due3.png&quot; rel=&quot;nofollow&quot; target=&quot;_NEW&quot;&gt;\nhttp://img59.imageshack.us/img59/6115/due3.png&lt;/a&gt;\n &lt;a href=&quot;\nhttp://img88.imageshack.us/img88/1367/due4.png&quot; rel=&quot;nofollow&quot; target=&quot;_NEW&quot;&gt;\nhttp://img88.imageshack.us/img88/1367/due4.png&lt;/a&gt;\n\nTHERE IS A SAMPLE SO PLEASE CHECK THAT FIRST","torrent":{"xt":"urn:btih:d9492993efe3ed3972dbe2d073bc227964f478b2","amp;dn":"Due+Date+%5B2010%5D+BRRip+x264+-+ZooGLE","amp;tr":["udp%3A%2F%2Ftracker.openbittorrent.com%3A80","udp%3A%2F%2Fopen.demonii.com%3A1337","udp%3A%2F%2Ftracker.coppersurfer.tk%3A6969","udp%3A%2F%2Fexodus.desync.com%3A6969"],"infoHash":"d9492993efe3ed3972dbe2d073bc227964f478b2","infoHashBuffer":{"type":"Buffer","data":[217,73,41,147,239,227,237,57,114,219,226,208,115,188,34,121,100,244,120,178]},"announce":[],"urlList":[]}}